# xmcd
#
# Track frame offsets:
#	150
#	10835
#	21842
#	31543
#	42058
#	52651
#	61781
#	72899
#	82289
#	90838
#	100531
#	111121
#	121118
#	133082
#	146844
#	157115
#	165758
#	177326
#	189970
#	199346
#
# Disc length: 2814 seconds
#
# Revision: 1
# Processed by: cddbd v1.5.2PL0 Copyright (c) Steve Scherf et al.
# Submitted via: audiograbber 1.83.01
#
DISCID=f30afc14
DTITLE=Rock n Roll Cowboys - CD4
DYEAR=2014
DGENRE=Country
TTITLE0=Don Gibson - Sittin here crying
TTITLE1=Buck Owens - Excuse Me (I Think I`ve got a heartache)
TTITLE2=Johnny Horton - Let`s Take the long way home
TTITLE3=Bill Justis - Raunchy
TTITLE4=Marvin Rainwater - My Brand of Blues
TTITLE5=Johnny Cash - I got stripes
TTITLE6=Bob Luman - You`ve got Everything
TTITLE7=Webb Pierce - Tupelo Country Jail
TTITLE8=Faron Young - That`s the way i feel
TTITLE9=Marty Robbins - Just Married
TTITLE10=Kenny Rogers - We`ll always have each other
TTITLE11=Rusty and Doug Kershaw - Let`s stay together
TTITLE12=Jimmy Dale - Tennessee Ghost Train
TTITLE13=Tennessee Ernie Ford - Mule Train
TTITLE14=Johnny Duncan and His Blue Grass Boys - This Train
TTITLE15=Marvin Rainwater - What you got you don`t want
TTITLE16=Jim Reeves - Yander comes a sucker
TTITLE17=Johnny Horton - Johnny Freedom
TTITLE18=Sonny James - Beg your Pardon
TTITLE19=George Jones - You gotta be my baby
EXTD=
EXTT0=
EXTT1=
EXTT2=
EXTT3=
EXTT4=
EXTT5=
EXTT6=
EXTT7=
EXTT8=
EXTT9=
EXTT10=
EXTT11=
EXTT12=
EXTT13=
EXTT14=
EXTT15=
EXTT16=
EXTT17=
EXTT18=
EXTT19=
PLAYORDER=
